<?xml version="1.0" encoding="UTF-8" standalone="no"?>
<svg
   xmlns:dc="http://purl.org/dc/elements/1.1/"
   xmlns:cc="http://creativecommons.org/ns#"
   xmlns:rdf="http://www.w3.org/1999/02/22-rdf-syntax-ns#"
   xmlns:svg="http://www.w3.org/2000/svg"
   xmlns="http://www.w3.org/2000/svg"
   xmlns:sodipodi="http://sodipodi.sourceforge.net/DTD/sodipodi-0.dtd"
   xmlns:inkscape="http://www.inkscape.org/namespaces/inkscape"
   version="1.0"
   width="333.000000pt"
   height="326.000000pt"
   viewBox="0 0 333.000000 326.000000"
   preserveAspectRatio="xMidYMid meet"
   id="svg2"
   inkscape:version="0.91 r13725"
   sodipodi:docname="logo_nontext.svg">
  <defs
     id="defs30" />
  <sodipodi:namedview
     pagecolor="#ffffff"
     bordercolor="#666666"
     borderopacity="1"
     objecttolerance="10"
     gridtolerance="10"
     guidetolerance="10"
     inkscape:pageopacity="0"
     inkscape:pageshadow="2"
     inkscape:window-width="1859"
     inkscape:window-height="1056"
     id="namedview28"
     showgrid="false"
     inkscape:zoom="0.5791411"
     inkscape:cx="208.125"
     inkscape:cy="203.75"
     inkscape:window-x="61"
     inkscape:window-y="24"
     inkscape:window-maximized="1"
     inkscape:current-layer="svg2" />
  <metadata
     id="metadata4">
Created by potrace 1.13, written by Peter Selinger 2001-2015
<rdf:RDF>
  <cc:Work
     rdf:about="">
    <dc:format>image/svg+xml</dc:format>
    <dc:type
       rdf:resource="http://purl.org/dc/dcmitype/StillImage" />
  </cc:Work>
</rdf:RDF>
</metadata>
  <g
     transform="translate(0.000000,326.000000) scale(0.100000,-0.100000)"
     fill="#000000"
     stroke="none"
     id="g6">
    <g
       id="g8">
      <path
         d="M970 3240 c-10 -10 -29 -38 -42 -62 -20 -39 -22 -57 -23 -189 0 -134 2 -150 25 -198 l24 -53 -29 -26 -30 -25 -6 55 c-9 83 -88 239 -136 273 -89 60 -153 1 -153 -140 0 -82 37 -199 90 -288 40 -65 41 -69 25 -93 -8 -13 -19 -24 -23 -24 -5 0 -30 33 -55 74 -26 41 -75 100 -109 132 -117 107 -209 124 -237 42 -15 -41 -6 -89 31 -165 47 -96 124 -175 240 -247 l28 -16 -22 -44 -21 -44 -71 59 c-89 76 -193 128 -268 136 -54 5 -59 4 -87 -25 -17 -17 -31 -39 -31 -49 0 -38 53 -124 103 -169 48 -42 212 -133 265 -146 17 -5 22 -13 22 -36 l0 -31 -67 24 c-179 62 -315 57 -395 -13 -10 -8 -18 -28 -18 -45 0 -84 204 -177 389 -177 l71 0 0 -56 0 -55 -57 7 c-154 21 -301 1 -369 -51 -71 -55 -26 -136 94 -171 71 -21 236 -23 311 -5 58 15 74 7 69 -34 -3 -16 -18 -22 -89 -36 -112 -22 -205 -67 -277 -134 -54 -50 -57 -56 -57 -100 0 -57 16 -71 89 -80 104 -13 291 52 366 126 15 16 32 29 37 29 9 0 47 -70 41 -75 -2 -1 -26 -10 -54 -19 -110 -36 -252 -146 -295 -228 -25 -48 -25 -100 1 -123 15 -14 32 -17 83 -13 94 6 198 60 297 154 l78 74 31 -35 c17 -20 31 -39 31 -43 0 -5 -17 -16 -38 -25 -46 -20 -150 -112 -203 -180 -42 -53 -72 -136 -63 -173 7 -26 60 -64 90 -64 35 0 175 91 243 158 38 37 78 86 90 110 12 23 24 42 26 42 3 0 25 -16 51 -35 119 -91 267 -161 437 -205 141 -37 174 -38 188 -6 7 14 9 36 5 49 -5 21 -14 26 -58 32 -107 14 -291 81 -417 152 l-63 35 60 62 c144 148 212 325 149 384 -72 67 -227 -40 -326 -226 l-44 -83 -39 38 c-21 20 -38 42 -38 48 0 5 21 21 48 35 75 40 173 145 216 231 42 85 41 115 -1 149 -31 24 -61 25 -110 5 -57 -24 -60 -18 -16 28 93 96 96 163 9 197 -61 23 -224 -33 -329 -113 -26 -21 -51 -37 -56 -37 -11 0 -34 88 -26 101 4 5 21 9 40 9 81 0 273 81 345 146 64 58 64 126 0 159 -62 32 -213 9 -332 -51 -26 -13 -50 -24 -53 -24 -8 0 -6 88 3 94 5 3 27 0 50 -6 32 -8 64 -7 136 6 169 28 276 84 305 159 13 35 13 40 -8 68 -24 32 -26 30 48 49 88 23 119 95 64 152 l-27 28 70 0 c120 1 194 53 165 118 -15 32 -17 30 37 38 101 14 152 53 152 114 0 54 -34 90 -129 136 l-80 38 66 69 c78 84 116 158 121 243 4 57 2 62 -23 82 -15 12 -40 22 -55 22 -70 0 -175 -71 -251 -169 l-49 -64 0 40 c0 76 -43 184 -88 221 -25 19 -89 15 -112 -8z m100 -30 c41 -41 53 -89 54 -210 1 -63 -1 -130 -4 -149 -8 -54 17 -51 40 6 43 102 77 158 135 218 86 89 177 129 213 93 49 -49 -52 -233 -187 -340 l-54 -42 69 -21 c87 -27 131 -49 172 -88 47 -45 40 -72 -26 -106 -27 -14 -115 -17 -192 -7 l-55 7 48 -41 c80 -71 84 -102 14 -121 -56 -15 -197 -2 -267 24 -66 24 -95 41 -138 81 -40 38 -48 34 -120 -60 l-52 -69 152 -6 c131 -4 161 -9 206 -28 64 -29 96 -65 82 -92 -15 -27 -40 -38 -125 -51 -103 -16 -213 0 -302 44 -78 38 -76 40 -122 -89 -43 -118 -42 -130 14 -93 101 68 376 94 406 39 21 -40 -55 -108 -165 -146 -54 -19 -235 -25 -287 -11 -24 7 -27 5 -33 -25 -12 -55 -19 -187 -11 -187 4 0 33 15 64 34 89 54 158 78 247 83 132 9 162 -29 81 -104 -81 -74 -229 -133 -338 -133 -56 0 -56 0 -52 -27 14 -95 37 -203 42 -203 4 0 36 25 72 56 77 67 205 132 274 140 42 5 53 3 69 -15 16 -18 17 -24 6 -51 -32 -77 -207 -199 -313 -219 -27 -5 -53 -13 -59 -19 -16 -16 66 -182 91 -182 4 0 24 24 45 54 76 110 214 216 283 216 33 0 54 -27 47 -58 -22 -89 -154 -237 -256 -286 l-58 -28 21 -30 c38 -52 131 -148 139 -143 5 3 16 29 24 58 31 103 120 225 205 279 54 34 76 35 92 7 17 -33 5 -94 -35 -173 -44 -89 -84 -137 -159 -192 l-58 -43 68 -44 c130 -84 290 -152 422 -178 57 -11 80 -23 68 -36 -11 -10 -172 29 -258 62 -117 45 -173 75 -285 150 -52 36 -101 65 -108 65 -7 0 -21 -21 -31 -47 -25 -64 -147 -191 -225 -232 -77 -41 -133 -41 -138 1 -10 83 164 279 281 317 20 7 37 18 37 26 0 15 -78 123 -105 145 -16 13 -19 13 -29 -4 -25 -41 -67 -88 -112 -126 -98 -81 -253 -140 -289 -110 -75 62 129 259 313 301 31 8 52 18 52 26 0 14 -42 101 -68 141 l-15 22 -53 -50 c-65 -62 -171 -114 -265 -131 -141 -25 -190 20 -111 99 82 82 222 141 335 142 76 0 75 -1 51 81 -24 80 -24 81 -107 57 -137 -38 -335 -11 -394 54 -18 20 -17 21 15 48 19 15 55 34 80 41 64 19 252 16 316 -4 l49 -16 -7 97 c-4 53 -10 100 -12 104 -3 4 -46 8 -95 8 -112 0 -213 22 -272 60 -125 79 -87 136 88 134 73 -1 107 -7 181 -33 50 -17 98 -31 107 -31 15 0 20 13 32 95 l6 41 -55 11 c-79 17 -172 64 -235 120 -57 50 -111 125 -111 155 0 57 136 42 238 -27 19 -13 70 -56 114 -95 l78 -72 15 37 c9 19 27 61 40 92 14 31 24 57 23 58 -2 2 -29 15 -60 29 -107 51 -258 242 -258 329 0 49 20 63 71 48 85 -26 233 -187 261 -284 6 -23 14 -46 18 -50 4 -4 32 25 62 66 l56 73 -34 41 c-71 86 -114 210 -114 333 0 67 17 110 45 110 59 0 175 -216 175 -327 0 -60 36 -54 108 18 22 22 31 37 26 48 -39 86 -54 157 -55 245 0 110 12 164 47 206 30 35 56 38 84 10z m-199 -737 c8 -9 28 -24 44 -35 l30 -18 -67 0 c-72 0 -78 5 -52 45 19 29 27 31 45 8z m-153 -258 c15 -8 41 -20 57 -26 l30 -11 -60 -17 c-33 -10 -71 -23 -83 -30 -13 -7 -25 -11 -27 -9 -6 5 43 108 50 108 4 0 19 -7 33 -15z m70 -969 c-35 -41 -66 -75 -70 -75 -7 -1 -58 72 -58 83 0 2 17 6 38 10 20 3 60 17 87 30 28 14 54 25 58 25 4 1 -21 -32 -55 -73z"
         id="path10" />
      <g
         id="g12">
        <path
           d="M970 2660 l-55 -50 55 -1 c30 0 82 -4 115 -8 33 -5 62 -7 64 -5 5 4 -111 113 -119 113 -3 0 -30 -22 -60 -49z"
           id="path14" />
      </g>
    </g>
    <g
       id="g16">
      <path
         d="M1931 3213 c-31 -142 -29 -147 71 -163 170 -28 396 -127 546 -239 92 -69 233 -215 303 -314 92 -130 174 -313 215 -482 21 -86 29 -319 15 -457 -25 -256 -126 -482 -314 -706 -125 -149 -257 -250 -441 -338 -131 -62 -233 -97 -341 -115 -44 -8 -79 -19 -82 -26 -3 -8 -2 -52 2 -98 l7 -85 33 0 c109 0 338 69 500 152 287 145 549 406 689 686 122 245 177 521 161 812 -27 486 -340 985 -772 1229 -161 92 -444 191 -543 191 -37 0 -38 -1 -49 -47z"
         id="path18" />
    </g>
    <g
       id="g20">
      <path
         d="M1887 2906 c-3 -7 -9 -49 -12 -92 l-7 -79 103 -24 c160 -36 330 -126 453 -241 132 -124 221 -259 282 -430 l38 -105 1 -205 c0 -190 -2 -210 -24 -275 -31 -92 -128 -295 -141 -295 -6 0 -10 -6 -10 -14 0 -21 -142 -168 -218 -226 -94 -72 -249 -146 -366 -174 -53 -14 -104 -30 -113 -38 -12 -10 -14 -26 -10 -81 8 -90 17 -101 81 -92 77 10 262 72 351 118 243 126 459 358 560 602 58 142 73 203 86 352 13 147 0 328 -32 443 -47 172 -159 368 -283 497 -170 178 -347 285 -568 343 -125 33 -163 37 -171 16z"
         id="path22" />
    </g>
    <g
       id="g24">
      <path
         d="M1653 2140 c-175 -35 -319 -202 -331 -384 -12 -191 108 -368 291 -429 16 -6 17 -29 17 -299 0 -161 3 -458 7 -661 l6 -367 99 0 98 0 0 658 0 659 43 12 c133 39 249 179 277 332 12 64 -6 179 -41 257 -29 68 -132 164 -204 191 -105 39 -176 48 -262 31z m180 -156 c91 -31 162 -119 182 -226 10 -50 -25 -162 -65 -210 -17 -20 -56 -49 -88 -65 -190 -93 -411 62 -389 272 18 172 195 285 360 229z"
         id="path26" />
    </g>
  </g>
  <path
     style="fill:#ffff00;fill-opacity:1;fill-rule:evenodd;stroke:#ffff00;stroke-width:0;stroke-linejoin:bevel;stroke-miterlimit:4;stroke-dasharray:none;stroke-opacity:1"
     d="m 67.295815,345.94027 c -4.754066,-5.72829 12.633192,-28.44701 28.719241,-37.52541 5.059414,-2.85535 9.198924,-5.96869 9.198924,-6.91854 0,-1.97087 -5.832052,-10.78354 -10.873468,-16.43061 l -3.401689,-3.81035 -10.715321,11.09094 c -7.234489,7.48809 -14.311122,12.79201 -21.78456,16.32753 -15.883827,7.51424 -21.822829,7.03389 -20.616005,-1.66747 1.205431,-8.69131 21.997609,-25.10471 37.190827,-29.35857 4.437164,-1.24232 8.439564,-3.22817 8.894221,-4.413 0.77731,-2.02563 -4.746111,-14.67504 -8.404564,-19.24764 -1.236516,-1.54548 -3.962506,-0.25574 -10.582888,5.00706 -14.866601,11.818 -35.67204,18.81909 -45.181384,15.20363 -5.421507,-2.06124 -5.404676,-3.61679 0.110042,-10.17066 6.373783,-7.57481 24.085251,-15.74428 37.829007,-17.44874 6.352528,-0.78782 12.011491,-1.89384 12.575474,-2.45783 0.563984,-0.56397 -0.126877,-4.71096 -1.535266,-9.21549 -2.527814,-8.08495 -2.648022,-8.1843 -9.364651,-7.73979 -26.51709,1.7549 -38.011382,1.11566 -46.086276,-2.56303 -4.5109907,-2.05508 -8.201801,-4.49384 -8.201801,-5.41946 0,-0.92563 2.9137976,-3.49461 6.475106,-5.70886 5.787341,-3.59827 8.400847,-4.00263 24.605402,-3.80691 9.971664,0.12044 20.378031,1.11466 23.125261,2.20937 l 4.994964,1.9904 -1.094892,-9.11615 c -0.60219,-5.01389 -1.101645,-11.14146 -1.1099,-13.61682 -0.01476,-4.42684 -0.269076,-4.51985 -15.502787,-5.66984 -16.709885,-1.26143 -26.706088,-4.07523 -34.700458,-9.76772 -5.8509335,-4.16624 -6.6238327,-9.55178 -1.599658,-11.1464 7.132434,-2.26374 26.967199,-0.9644 37.983417,2.48824 16.413002,5.14406 15.655824,5.51635 18.221316,-8.95923 1.022627,-5.77009 0.757603,-6.47511 -2.434056,-6.47511 -11.4474,0 -34.614081,-14.20286 -42.429076,-26.01212 -6.428295,-9.71381 -4.98615,-12.75503 5.374994,-11.33487 9.791607,1.34209 18.933472,6.58768 32.159152,18.45288 6.07741,5.45225 10.662046,8.3815 11.619512,7.42404 0.869795,-0.8698 3.460416,-6.19985 5.756934,-11.84457 l 4.17549,-10.26312 -8.192199,-4.67876 C 53.346739,102.41173 33.879376,71.471715 43.760467,67.679985 50.650874,65.035887 71.383191,84.120456 79.110436,100.22043 l 4.920017,10.25103 5.40369,-5.76592 c 2.97203,-3.17126 5.407285,-4.889796 5.411681,-3.81898 0.0044,1.07082 -1.15753,2.91424 -2.582053,4.09649 -1.424523,1.18225 -2.590042,2.72083 -2.590042,3.41906 0,0.69823 8.741393,1.8095 19.425321,2.46947 20.12057,1.24291 32.65354,5.11265 34.81688,10.75023 1.48805,3.87781 -0.0512,5.4615 -7.25216,7.46141 -11.96597,3.3233 -28.9803,2.20718 -41.263426,-2.70685 -13.159023,-5.26444 -13.856848,-4.92966 -19.425717,9.31944 -4.532607,11.59761 -4.720511,16.76152 -0.546131,15.00857 19.273638,-8.09356 37.297954,-11.41658 47.726884,-8.79909 9.03992,2.26887 5.14072,9.294 -9.30792,16.76993 -6.56676,3.39773 -10.7117,4.07811 -26.763774,4.39321 l -18.993644,0.37284 -1.195511,6.59981 c -0.657533,3.6299 -1.240292,9.87416 -1.295022,13.87615 L 65.5,191.19357 79.489753,184.42828 c 15.137017,-7.32009 25.691047,-9.68915 35.209527,-7.90348 7.74891,1.45371 7.66108,4.39158 -0.34136,11.41782 -9.04285,7.93973 -23.40375,14.04875 -36.119211,15.36484 -5.990017,0.61999 -11.248734,1.48505 -11.686038,1.92236 -0.813218,0.81321 3.897971,27.87428 5.054098,29.03073 0.351199,0.35129 5.531205,-3.06385 11.511121,-7.58921 13.941077,-10.55004 27.29122,-16.74212 34.58237,-16.04003 8.53564,0.82192 8.27281,6.02672 -0.75599,14.97101 -7.58904,7.518 -28.588091,19.24302 -34.463507,19.24302 -1.801573,0 -3.728927,1.18139 -4.283009,2.6253 -1.145939,2.98627 7.862425,21.97449 10.84129,22.85174 1.075446,0.31669 4.912808,-3.45303 8.527469,-8.37718 12.320677,-16.78413 34.953257,-29.62615 38.039317,-21.584 2.6784,6.9798 -18.09438,31.84847 -31.72905,37.98525 -4.012951,1.80619 -7.296272,3.81056 -7.296272,4.45416 0,1.78527 19.080372,22.47905 20.726442,22.47905 0.79368,0 2.73307,-3.88387 4.30976,-8.63083 5.36226,-16.14425 23.43789,-36.26324 32.58021,-36.26324 2.06202,0 2.81791,1.59932 2.81791,5.96219 0,11.39054 -11.39082,30.55732 -23.20052,39.0384 -4.60943,3.31025 -7.62693,6.69585 -7.1276,7.99708 1.15531,3.0107 0.49578,2.87654 -6.68399,-1.35963 l -6.129,-3.6162 -3.03485,5.70612 c -3.93901,7.40616 -20.298829,24.90994 -27.089962,28.98425 -7.815252,4.68872 -14.029803,5.76236 -16.453093,2.84247 z"
     id="path4158"
     inkscape:connector-curvature="0"
     transform="scale(0.8,0.8)" />
  <path
     style="fill:#ffff00;fill-opacity:1;fill-rule:evenodd;stroke:#ffff00;stroke-width:0;stroke-linejoin:bevel;stroke-miterlimit:4;stroke-dasharray:none;stroke-opacity:1"
     d="m 141.47458,105.51685 c -9.63506,-1.61287 -20.86157,-6.203483 -26.89329,-10.996893 -3.51383,-2.792439 -7.05295,-5.07716 -7.86472,-5.07716 -0.81177,0 -3.55341,2.331601 -6.09254,5.181334 -4.999401,5.610979 -7.302402,5.858699 -3.905968,0.420145 1.796524,-2.876693 1.271721,-4.577271 -3.595856,-11.652051 C 83.745509,69.763662 78.169414,45.405682 82.088339,35.193128 c 3.9281,-10.236464 21.579121,14.540992 24.193211,33.961003 1.37005,10.178057 5.2308,10.882243 13.62745,2.485597 l 5.71621,-5.716207 -3.24247,-9.392374 c -4.69145,-13.589624 -4.61046,-38.392815 0.15085,-46.202353 4.09879,-6.7228567 7.5638,-6.6581093 12.71456,0.237585 3.12542,4.184217 3.71736,7.762965 4.21267,25.468749 0.31695,11.330256 1.28048,20.600465 2.14117,20.600465 0.8607,0 3.83839,-5.014078 6.6171,-11.142397 8.85814,-19.536199 30.09956,-38.0598949 38.49289,-33.567924 4.22998,2.263818 3.9508,4.48897 -2.07658,16.550818 -3.11826,6.240189 -9.32215,14.323984 -15.55682,20.270856 -10.14146,9.673312 -11.52648,13.068732 -5.33086,13.068732 5.09126,0 24.23807,10.382513 26.3197,14.272064 1.62319,3.032959 1.30658,4.140583 -1.93351,6.764253 -4.16158,3.369842 -6.94468,3.73647 -24.03222,3.165845 l -11.04344,-0.368786 7.15837,6.809602 c 3.93711,3.74528 7.15838,7.726154 7.15838,8.846384 0,4.32374 -12.79864,6.405 -25.90042,4.21181 z m -3.45339,-29.024265 c -4.1942,-4.27357 -8.2933,-7.770127 -9.10912,-7.770127 -1.90554,0 -14.99236,10.831678 -15.03349,12.442891 -0.0171,0.670657 5.60222,1.487534 12.48742,1.81528 6.88519,0.327747 14.04009,0.750295 15.89976,0.938994 2.58794,0.262596 1.59209,-1.479907 -4.24457,-7.427038 z"
     id="path4160"
     inkscape:connector-curvature="0"
     transform="scale(0.8,0.8)" />
</svg>
